# xmcd
#
# Track frame offsets: 
#        150
#        11830
#        25541
#        34029
#        45332
#        58435
#        71448
#        84572
#        97226
#        115700
#        128361
#        140081
#        151387
#        162534
#        180333
#
# Disc length: 2542 seconds
#
# Revision: 3
# Processed by: cddbd v1.5.2PL0 Copyright (c) Steve Scherf et al.
# Submitted via: ExactAudioCopy v0.99pb5
#
DISCID=c109ec0f
DTITLE=Bob Dylan - Christmas in the Heart
DYEAR=2009
DGENRE=Folk
TTITLE0=Here Comes Santa Claus
TTITLE1=Do You Hear What I Hear
TTITLE2=Winter Wonderland
TTITLE3=Hark the Herald Angels Sing
TTITLE4=I'll be Home for Christmas
TTITLE5=Little Drummer Boy
TTITLE6=The Christmas Blues
TTITLE7=O Come all ye Faithful (Adeste Fideles)
TTITLE8=Have Yourself a Merry Little Christmas
TTITLE9=Must be Santa
TTITLE10=Silver Bells
TTITLE11=The First Noel
TTITLE12=Christmas Island
TTITLE13=The Christmas Song
TTITLE14=O Little Town of Bethlehem
EXTD=
EXTT0=
EXTT1=
EXTT2=
EXTT3=
EXTT4=
EXTT5=
EXTT6=
EXTT7=
EXTT8=
EXTT9=
EXTT10=
EXTT11=
EXTT12=
EXTT13=
EXTT14=
PLAYORDER=
